<?xml version="1.0" encoding="UTF-8"?> <svg xmlns="http://www.w3.org/2000/svg" viewBox="0 0 129.78 20.72"><defs><style>.a{fill:#fbb03b;}</style></defs><title>stars</title><polygon class="a" points="10.89 0 14.26 6.82 21.78 7.91 16.34 13.22 17.62 20.72 10.89 17.18 4.16 20.72 5.45 13.22 0 7.91 7.53 6.82 10.89 0"></polygon><polygon class="a" points="37.89 0 41.26 6.82 48.78 7.91 43.34 13.22 44.62 20.72 37.89 17.18 31.16 20.72 32.45 13.22 27 7.91 34.53 6.82 37.89 0"></polygon><polygon class="a" points="64.89 0 68.26 6.82 75.78 7.91 70.34 13.22 71.62 20.72 64.89 17.18 58.16 20.72 59.45 13.22 54 7.91 61.53 6.82 64.89 0"></polygon><polygon class="a" points="91.89 0 95.26 6.82 102.78 7.91 97.34 13.22 98.62 20.72 91.89 17.18 85.16 20.72 86.45 13.22 81 7.91 88.53 6.82 91.89 0"></polygon><polygon class="a" points="118.89 0 122.26 6.82 129.78 7.91 124.34 13.22 125.62 20.72 118.89 17.18 112.16 20.72 113.45 13.22 108 7.91 115.53 6.82 118.89 0"></polygon></svg> 