<svg xmlns="http://www.w3.org/2000/svg" viewBox="0 0 122.14 150"><defs><style>.a{fill:#ffffff;}</style></defs><title>Asset 5</title><path class="a" d="M62.21,10.71h-3.3a3.19,3.19,0,0,1-3.2-3.19V7.41A7.41,7.41,0,0,0,48.3,0h-.17a7.41,7.41,0,0,0-7.41,7.41v.11a3.19,3.19,0,0,1-3.2,3.19h-3.3a6.37,6.37,0,0,0-6.36,6.37v.13a6.36,6.36,0,0,0,6.36,6.36h28a6.36,6.36,0,0,0,6.36-6.36v-.13a6.37,6.37,0,0,0-6.36-6.37Zm-14,0A3.21,3.21,0,1,1,51.43,7.5a3.21,3.21,0,0,1-3.22,3.21ZM62.52,135H8.57A8.57,8.57,0,0,1,0,126.43V23.57C0,18.84,3.84,15,6.43,15H23.79a11.42,11.42,0,0,0-.22,2.21A10.67,10.67,0,0,0,34.22,27.86h28A10.69,10.69,0,0,0,72.86,17.08,11,11,0,0,0,72.65,15H85.71c6.88,0,10.72,3.84,10.72,8.57V88c-.71,0-1.42-.11-2.14-.11A33.75,33.75,0,0,0,85.71,89V38.57h-75v85.72h49.4A34.12,34.12,0,0,0,62.52,135ZM94.29,94.29a27.86,27.86,0,1,0,27.85,27.85A27.85,27.85,0,0,0,94.29,94.29Zm18.2,22.13L95.35,135.71a4.31,4.31,0,0,1-3.21,1.43,4.25,4.25,0,0,1-2.67-.94l-10.72-8.57a4.29,4.29,0,1,1,5.36-6.69l7.53,6,14.44-16.25a4.29,4.29,0,0,1,6.41,5.7ZM75,75H40.72a2.14,2.14,0,0,1-2.15-2.14V70.71a2.14,2.14,0,0,1,2.15-2.14H75a2.14,2.14,0,0,1,2.14,2.14v2.15A2.14,2.14,0,0,1,75,75Zm0-19.29H40.72a2.14,2.14,0,0,1-2.15-2.14V51.43a2.14,2.14,0,0,1,2.15-2.14H75a2.14,2.14,0,0,1,2.14,2.14v2.14A2.14,2.14,0,0,1,75,55.71ZM64.29,92.14H40.72A2.14,2.14,0,0,1,38.57,90V87.86a2.15,2.15,0,0,1,2.15-2.15H64.29a2.14,2.14,0,0,1,2.14,2.15V90a2.14,2.14,0,0,1-2.14,2.14ZM60,111.43H40.72a2.14,2.14,0,0,1-2.15-2.14v-2.15A2.14,2.14,0,0,1,40.72,105H60a2.14,2.14,0,0,1,2.14,2.14v2.15A2.14,2.14,0,0,1,60,111.43ZM34.47,47.79l-7.89,8.88a2,2,0,0,1-2.71.23L18.94,53a2,2,0,1,1,2.46-3.08l3.47,2.78,6.65-7.48a2,2,0,1,1,2.95,2.62Zm0,19.06-7.89,8.88a2,2,0,0,1-2.71.23L18.94,72a2,2,0,0,1,2.46-3.09l3.47,2.78,6.65-7.48a2,2,0,0,1,2.95,2.62Zm0,18.24L26.58,94a2,2,0,0,1-1.48.66,2,2,0,0,1-1.23-.43l-4.93-4a2,2,0,0,1,2.46-3.08l3.47,2.77,6.65-7.48a2,2,0,0,1,2.95,2.63Zm0,18.36-7.89,8.88a2,2,0,0,1-1.48.66,2,2,0,0,1-1.23-.43l-4.93-4a2,2,0,1,1,2.46-3.08l3.47,2.77,6.65-7.47a2,2,0,1,1,2.95,2.62Z"/></svg>