<svg xmlns="http://www.w3.org/2000/svg" xmlns:xlink="http://www.w3.org/1999/xlink" viewBox="0 0 170.41 149.41"><defs><style>.a{fill:none;}.b{clip-path:url(#a);}.c{fill:#ffffff;}</style><clipPath id="a" transform="translate(0 -0.29)"><rect class="a" width="170.41" height="150"/></clipPath></defs><title>Asset 6</title><g class="b"><path class="c" d="M170.41,57.89a53.34,53.34,0,0,0-31.79-48,9.62,9.62,0,0,0-18.14-4.44c-1.48-.09-3-.14-4.44-.11a53.5,53.5,0,0,0-52.62,53L54.09,89.1a3.31,3.31,0,0,0,.51,3,3.35,3.35,0,0,0,2.68,1.34H67.9A1.06,1.06,0,0,1,69,94.45V105.6A21.56,21.56,0,0,0,90.5,127.14h4.7a4.13,4.13,0,0,1,4.13,4.13v15.11a3.33,3.33,0,0,0,6.66,0V131.27A10.8,10.8,0,0,0,95.2,120.48H90.5A14.89,14.89,0,0,1,75.62,105.6V94.45a7.72,7.72,0,0,0-7.72-7.71H61.76l8.17-27a3.15,3.15,0,0,0,.15-1A47,47,0,0,1,116.15,12c1.07,0,2.15,0,3.22.06V60.12a19.68,19.68,0,0,0,5.3,36.69,7.75,7.75,0,0,1-7.16,4.81H103.34a9.48,9.48,0,1,0,0,6.66h14.17A14.44,14.44,0,0,0,131.57,97a19.68,19.68,0,0,0,7.05-36.39V17.27A46.68,46.68,0,0,1,163.75,58c.2,11.54-3.83,25-10.27,34.22a26.28,26.28,0,0,0-4.71,15.06v26.15a3.33,3.33,0,0,0,6.66,0V107.28A19.68,19.68,0,0,1,159,96a68.13,68.13,0,0,0,11.46-38.13ZM94.46,107.78A2.83,2.83,0,1,1,97.29,105a2.83,2.83,0,0,1-2.83,2.83ZM126,9.92a3,3,0,0,1,5.94,0v48.2a20,20,0,0,0-3.39-.3A19.39,19.39,0,0,0,126,58Zm15.58,67.59a13,13,0,1,1-13-13,13.05,13.05,0,0,1,13,13Z" transform="translate(0 -0.29)"/><path class="c" d="M154.45,144a3.32,3.32,0,1,0,1,2.36,3.33,3.33,0,0,0-1-2.36Z" transform="translate(0 -0.29)"/><path class="c" d="M78.34,7.54A53.82,53.82,0,0,0,62.09,5.33a53.5,53.5,0,0,0-52.61,53L.14,89.1a3.33,3.33,0,0,0,3.19,4.29H14a1.06,1.06,0,0,1,1,1.06V105.6a21.57,21.57,0,0,0,21.54,21.54h4.71a4.13,4.13,0,0,1,4.12,4.13v15.11a3.33,3.33,0,1,0,6.66,0V131.27a10.8,10.8,0,0,0-10.78-10.79H36.55A14.9,14.9,0,0,1,21.67,105.6V94.45A7.72,7.72,0,0,0,14,86.74H7.82l8.17-27a3.48,3.48,0,0,0,.14-1A46.9,46.9,0,0,1,76.44,13.93a3.33,3.33,0,0,0,1.9-6.39Z" transform="translate(0 -0.29)"/></g><path class="c" d="M61.22,101.62H49.4a9.48,9.48,0,1,0,0,6.66H61.22a3.33,3.33,0,0,0,0-6.66Zm-20.71,6.16A2.83,2.83,0,1,1,43.34,105a2.83,2.83,0,0,1-2.83,2.83Z" transform="translate(0 -0.29)"/><path class="c" d="M27.18,55.35a3.33,3.33,0,0,0-3.33,3.33v.14a3.33,3.33,0,1,0,6.66,0v-.14a3.33,3.33,0,0,0-3.33-3.33Z" transform="translate(0 -0.29)"/><path class="c" d="M62.09,20a38.89,38.89,0,0,0-35.2,23.78,3.33,3.33,0,0,0,1.78,4.36,3.45,3.45,0,0,0,1.29.26,3.34,3.34,0,0,0,3.07-2A32.24,32.24,0,0,1,62.2,26.6,3.33,3.33,0,1,0,62.09,20Z" transform="translate(0 -0.29)"/><path class="c" d="M84.56,56.46a3.32,3.32,0,1,0,1,2.36,3.33,3.33,0,0,0-1-2.36Z" transform="translate(0 -0.29)"/></svg>