<svg xmlns="http://www.w3.org/2000/svg" xmlns:xlink="http://www.w3.org/1999/xlink" viewBox="0 0 170.42 149.54"><defs><style>.a{fill:none;}.b{clip-path:url(#a);}.c{fill:#ffffff;}</style><clipPath id="a" transform="translate(0 -0.09)"><rect class="a" width="170.41" height="150"/></clipPath></defs><title>Asset 8</title><g class="b"><path class="c" d="M170,106.88a11.29,11.29,0,0,0-9.21-8.18V34h5.65a2.82,2.82,0,0,0,2.82-2.82V2.91A2.82,2.82,0,0,0,166.47.09H42.32A2.82,2.82,0,0,0,39.5,2.91V31.13A2.82,2.82,0,0,0,42.32,34H48V90.38H45.14a36.31,36.31,0,0,0-19.75,5.78V81.91a2.82,2.82,0,0,0-2.82-2.82H2.82A2.82,2.82,0,0,0,0,81.91v64.9a2.82,2.82,0,0,0,2.82,2.82H22.57a2.82,2.82,0,0,0,2.82-2.82V132.56a36.31,36.31,0,0,0,19.75,5.78H91.47a37.22,37.22,0,0,0,9.51-1.25l61.08-16.37a11.32,11.32,0,0,0,8-13.84ZM45.14,5.73h118.5V28.31H45.14ZM53.61,34H155.18V99.19L122.43,108a11.35,11.35,0,0,0-7.46-6.55L77,91.22a25.86,25.86,0,0,0-6.55-.84H53.61ZM19.75,144H5.64V84.73H19.75ZM160.6,115.27,99.52,131.64a31.65,31.65,0,0,1-8,1.06H45.14a30.9,30.9,0,0,1-18.62-6.21l-1.13-.84V103.07l1.13-.84A30.77,30.77,0,0,1,45.14,96H70.4a19.93,19.93,0,0,1,5.1.66l38,10.19a5.68,5.68,0,0,1,4.14,4.86c0,.11.07.23.12.34a2.21,2.21,0,0,0-.08.37,4.8,4.8,0,0,1-.18,1.36,5.65,5.65,0,0,1-6.91,4l-24-6.43a2.85,2.85,0,0,0-2.79.7,2.82,2.82,0,0,0,1.32,4.75l24,6.44a11.54,11.54,0,0,0,2.93.37,11.25,11.25,0,0,0,10.86-8.29,9.15,9.15,0,0,0,.32-1.72l34.4-9.23c.24-.06.51-.12.76-.16a5.64,5.64,0,0,1,6.18,4.15,5.9,5.9,0,0,1,.18,1.46,5.64,5.64,0,0,1-4.17,5.45Z" transform="translate(0 -0.09)"/></g><path class="c" d="M90.29,45.24H118.5a2.83,2.83,0,0,0,0-5.65H90.29a2.83,2.83,0,1,0,0,5.65Z" transform="translate(0 -0.09)"/></svg>