<svg xmlns="http://www.w3.org/2000/svg" viewBox="0 0 220.02 150"><defs><style>.a{fill:#ffffff;}</style></defs><title>Asset 7</title><path class="a" d="M179.88,109.68a20.34,20.34,0,0,0-14.34,5.91,19.91,19.91,0,0,0,0,28.49A20.42,20.42,0,0,0,179.88,150a20.16,20.16,0,0,0,0-40.32Zm0,31.36a11.2,11.2,0,1,1,0-22.4,11.2,11.2,0,0,1,0,22.4Zm5.2-98.52a4.37,4.37,0,0,0-3-1.17h-23a4.5,4.5,0,0,0-4.48,4.48V82.57a4.49,4.49,0,0,0,4.48,4.48h36.47A4.49,4.49,0,0,0,200,82.57V58a4.49,4.49,0,0,0-1.48-3.32Zm6,35.57H163.57V50.27h16.76L191.08,60ZM70.47,109.68a20.3,20.3,0,0,0-14.33,5.91,19.89,19.89,0,0,0,0,28.49A20.38,20.38,0,0,0,70.47,150a20.16,20.16,0,0,0,0-40.32Zm0,31.36a11.2,11.2,0,1,1,0-22.4,11.2,11.2,0,0,1,0,22.4ZM40.59,115.19h-9V103.27a4.48,4.48,0,1,0-9,0v16.4a4.49,4.49,0,0,0,4.47,4.48H40.59a4.48,4.48,0,0,0,0-9ZM63.3,90.77a4.49,4.49,0,0,0-4.48-4.48H4.48a4.48,4.48,0,1,0,0,9H58.82a4.46,4.46,0,0,0,4.48-4.48ZM13.57,74.6l54.35.31a4.53,4.53,0,0,0,4.53-4.44A4.45,4.45,0,0,0,68,66l-54.35-.31h0a4.48,4.48,0,0,0,0,9Zm9.15-20.34H77.06a4.48,4.48,0,1,0,0-9H22.72a4.48,4.48,0,1,0,0,9Zm195.64-6L186.29,21.64a4.45,4.45,0,0,0-2.87-1H145.7V4.48A4.5,4.5,0,0,0,141.22,0H27.1a4.49,4.49,0,0,0-4.47,4.48v32.8a4.48,4.48,0,1,0,9,0V9H136.78V115.19H100a4.48,4.48,0,0,0,0,9h54.71a4.48,4.48,0,0,0,0-9h-9V29.57h36.11l29.21,24.19-.31,61.34h-4.66a4.48,4.48,0,1,0,0,9h9.09a4.46,4.46,0,0,0,4.49-4.44L220,51.7a4.68,4.68,0,0,0-1.66-3.49Z"/></svg>